<?xml version="1.0" encoding="UTF-8"?>
<svg version="1.1" xmlns="http://www.w3.org/2000/svg" width="1024" height="1024">
<path d="M0 0 C337.92 0 675.84 0 1024 0 C1024 337.92 1024 675.84 1024 1024 C686.08 1024 348.16 1024 0 1024 C0 686.08 0 348.16 0 0 Z " fill="#151515" transform="translate(0,0)"/>
<path d="M0 0 C1.30953392 -0.00855011 1.30953392 -0.00855011 2.64552307 -0.01727295 C4.4833152 -0.02665033 6.32112359 -0.0332277 8.15893555 -0.03710938 C10.90380004 -0.04674301 13.64789077 -0.07780703 16.39257812 -0.109375 C28.37498184 -0.18132642 39.7478773 0.90073456 51.50390625 3.203125 C52.53684814 3.40196289 53.56979004 3.60080078 54.6340332 3.80566406 C57.08362612 4.30952807 59.51189414 4.86052985 61.94140625 5.453125 C62.80209717 5.66219482 63.66278809 5.87126465 64.54956055 6.08666992 C80.02456349 9.9832534 94.50128898 15.57709558 108.50390625 23.203125 C109.10396484 23.52394043 109.70402344 23.84475586 110.32226562 24.17529297 C137.57302494 38.80363132 160.59395329 60.10881821 178.50390625 85.203125 C178.95072754 85.82123047 179.39754883 86.43933594 179.85791016 87.07617188 C213.11602498 133.43368039 224.56354481 193.03831208 216.05175781 248.97412109 C212.31609492 270.99189179 205.61047611 292.28648557 195.50390625 312.203125 C195.15569824 312.89535156 194.80749023 313.58757812 194.44873047 314.30078125 C186.42935514 330.14817253 176.64246247 344.38027707 165.50390625 358.203125 C167.19679787 362.53650167 170.40162992 365.47160086 173.56640625 368.765625 C178.40937465 373.88609682 182.98552757 379.12179103 187.39453125 384.625 C189.52375771 387.2273879 191.73839982 389.71888002 194.00390625 392.203125 C197.83333357 396.40954258 201.44194533 400.75454475 205.01953125 405.17578125 C209.74700094 410.9364558 214.63605941 416.56103518 219.50390625 422.203125 C215.19691862 428.53693034 210.10546309 433.71832579 204.67138672 439.0690918 C201.11790683 442.57336101 197.71478332 446.11586609 194.4921875 449.9296875 C190.87762288 454.06264744 187.07440549 458.02588032 183.30078125 462.01342773 C182.71167969 462.63934814 182.12257813 463.26526855 181.515625 463.91015625 C180.98412842 464.4719458 180.45263184 465.03373535 179.9050293 465.61254883 C178.30265735 467.36010066 178.30265735 467.36010066 176.50390625 470.203125 C173.81640625 470.828125 173.81640625 470.828125 170.50390625 470.203125 C167.25477452 467.74391979 164.71642977 464.63317348 162.09130859 461.53710938 C157.01949525 455.62523484 151.54860737 450.16940036 146.00390625 444.703125 C139.93051824 438.71564064 134.04346298 432.68814381 128.50390625 426.203125 C127.04945108 424.59544127 125.5916973 422.99072785 124.12890625 421.390625 C120.0505136 416.88623586 116.22307319 412.21440372 112.44921875 407.453125 C110.52335081 405.02352247 110.52335081 405.02352247 107.50390625 403.203125 C105.0905978 403.94075955 105.0905978 403.94075955 102.515625 405.38671875 C101.00754272 406.15532227 101.00754272 406.15532227 99.46899414 406.93945312 C97.84658813 407.7815332 97.84658813 407.7815332 96.19140625 408.640625 C84.56604874 414.44282291 73.0428812 418.84334145 60.50390625 422.203125 C59.33553223 422.51950928 59.33553223 422.51950928 58.14355469 422.84228516 C8.0226693 436.05636474 -47.44884875 427.03063131 -92.1953125 401.5703125 C-101.914494 395.87370706 -110.90144187 389.47833605 -119.49609375 382.203125 C-120.34042969 381.48898437 -121.18476563 380.77484375 -122.0546875 380.0390625 C-124.59181579 377.81438843 -127.05015807 375.52783355 -129.49609375 373.203125 C-130.0487793 372.68298828 -130.60146484 372.16285156 -131.17089844 371.62695312 C-167.78412992 336.96144325 -194.38342358 284.8941469 -196.59480286 233.92816162 C-196.64356829 231.4281619 -196.66084448 228.93015952 -196.6640625 226.4296875 C-196.6673909 225.50707123 -196.6707193 224.58445496 -196.67414856 223.63388062 C-196.67918908 221.68577569 -196.68155778 219.73766222 -196.68139648 217.78955078 C-196.68356174 214.87126604 -196.70168953 211.95337323 -196.72070312 209.03515625 C-196.76831772 193.60253522 -195.90360121 178.45697444 -192.30859375 163.390625 C-192.09428711 162.47812988 -191.87998047 161.56563477 -191.65917969 160.62548828 C-182.08210143 121.22671583 -162.36885811 87.40893461 -134.49609375 58.203125 C-133.89539063 57.54957031 -133.2946875 56.89601563 -132.67578125 56.22265625 C-119.30709944 42.08141242 -101.60543254 31.18755504 -84.49609375 22.203125 C-83.84189453 21.85894531 -83.18769531 21.51476562 -82.51367188 21.16015625 C-57.3202532 8.12649466 -28.42471167 0.14960281 0 0 Z " fill="#FEFEFE" transform="translate(305.49609375,280.796875)"/>
<path d="M0 0 C1.25695679 0.00539291 1.25695679 0.00539291 2.53930664 0.01089478 C3.41727402 0.01074875 4.29524139 0.01060272 5.19981384 0.01045227 C8.11630685 0.01115172 11.03273683 0.01894561 13.94921875 0.02676392 C15.96561142 0.02862798 17.98200454 0.03005194 19.99839783 0.03105164 C25.31671388 0.03487772 30.6350028 0.04470878 35.95330811 0.05575562 C41.37576938 0.06596779 46.79823502 0.07054884 52.22070312 0.07559204 C62.86850153 0.08633097 73.51627976 0.10340847 84.1640625 0.12442017 C88.43419258 9.56814448 88.43419258 9.56814448 89.84765625 13.80410767 C90.12818848 14.63096069 90.4087207 15.45781372 90.69775391 16.3097229 C90.99601074 17.197323 91.29426758 18.0849231 91.6015625 18.99942017 C94.73876592 28.18046486 98.05840817 37.28097516 101.46520996 46.36419678 C110.55286214 70.60657609 118.99887763 95.06567852 127.453125 119.53457642 C128.96076632 123.89791684 130.4685707 128.26120086 131.9765625 132.62442017 C132.548302 134.27891174 132.548302 134.27891174 133.1315918 135.96682739 C140.1997169 156.41289365 147.39395352 176.81233067 154.64013672 197.19586182 C157.45333827 205.11317372 160.25325127 213.0351372 163.0488205 220.95868683 C172.03439246 246.42605968 181.02043118 271.89103028 190.29067993 297.25656128 C201.78948793 328.72049278 213.00022516 360.29023801 224.1640625 391.87442017 C224.40000122 392.54112732 224.63593994 393.20783447 224.87902832 393.89474487 C226.31935295 397.96718762 227.74762341 402.04361031 229.1640625 406.12442017 C229.55851562 407.25815063 229.95296875 408.3918811 230.359375 409.55996704 C230.72804688 410.63826782 231.09671875 411.7165686 231.4765625 412.82754517 C231.80269531 413.77790649 232.12882812 414.72826782 232.46484375 415.70742798 C233.1640625 418.12442017 233.1640625 418.12442017 233.1640625 421.12442017 C205.4440625 421.12442017 177.7240625 421.12442017 149.1640625 421.12442017 C133.74892365 377.99031605 133.74892365 377.99031605 126.75463867 358.24917603 C126.35092041 357.10972534 125.94720215 355.97027466 125.53125 354.79629517 C125.14678711 353.70897095 124.76232422 352.62164673 124.36621094 351.50137329 C123.50245076 349.07498605 122.63121157 346.65222656 121.75097656 344.23184204 C121.51847198 343.58966736 121.28596741 342.94749268 121.04641724 342.28585815 C120.39536528 340.48935614 119.74099224 338.6940587 119.08642578 336.89883423 C118.1640625 334.12442017 118.1640625 334.12442017 118.1640625 332.12442017 C65.6940625 332.12442017 13.2240625 332.12442017 -40.8359375 332.12442017 C-41.4959375 335.09442017 -42.1559375 338.06442017 -42.8359375 341.12442017 C-43.3282211 342.74134501 -43.85311676 344.34934271 -44.43310547 345.93692017 C-44.73457489 346.7707019 -45.03604431 347.60448364 -45.34664917 348.46353149 C-45.67053619 349.34162476 -45.99442322 350.21971802 -46.328125 351.12442017 C-46.67416779 352.07663452 -47.02021057 353.02884888 -47.3767395 354.00991821 C-48.48289922 357.05002583 -49.59671317 360.0872603 -50.7109375 363.12442017 C-51.4197882 365.06824199 -52.12812464 367.01225143 -52.8359375 368.95645142 C-55.16518272 375.3472658 -57.50075117 381.73577425 -59.8359375 388.12442017 C-63.7959375 399.01442017 -67.7559375 409.90442017 -71.8359375 421.12442017 C-100.2159375 421.12442017 -128.5959375 421.12442017 -157.8359375 421.12442017 C-155.90803005 414.69806199 -153.94265039 408.46673426 -151.5703125 402.21817017 C-150.92899102 400.50993527 -150.2877171 398.80168252 -149.64648438 397.09341431 C-149.14362915 395.75924973 -149.14362915 395.75924973 -148.63061523 394.39813232 C-142.722463 378.71146345 -136.94574141 362.98264711 -131.3359375 347.18692017 C-126.32447987 333.08467411 -121.27050417 318.99940215 -116.1484375 304.93692017 C-115.820784 304.03704376 -115.49313049 303.13716736 -115.1555481 302.21002197 C-112.71731955 295.51422278 -110.27671993 288.81928873 -107.8359375 282.12442017 C-94.08218403 244.39629538 -80.43905014 206.62994091 -66.88257408 168.83058929 C-65.35287852 164.56539824 -63.82262521 160.30040773 -62.29199219 156.03555298 C-52.8980997 129.86093472 -43.53069893 103.67697265 -34.18466187 77.48522949 C-28.48004765 61.5001243 -22.7539157 45.52315125 -16.96728516 29.5675354 C-16.49898932 28.27531144 -16.03072665 26.98307545 -15.5625 25.69082642 C-15.12067383 24.47153442 -14.67884766 23.25224243 -14.22363281 21.9960022 C-13.19590644 19.14330378 -12.18929636 16.28373526 -11.19042969 13.42080688 C-10.91621185 12.63632675 -10.64199402 11.85184662 -10.35946655 11.04359436 C-9.82726659 9.51801908 -9.29756821 7.99156828 -8.7706604 6.4641571 C-6.6536646 0.39602912 -6.48120735 0.01174389 0 0 Z " fill="#FEFEFE" transform="translate(697.8359375,282.8755798339844)"/>
<path d="M0 0 C4.42750587 3.60235179 8.65809886 7.36829849 12.80859375 11.28515625 C13.5459375 11.95804687 14.28328125 12.6309375 15.04296875 13.32421875 C38.83428506 35.85003951 54.07341404 70.91713469 55.09928894 103.5305481 C55.17701531 107.30330479 55.19378339 111.07419001 55.18359375 114.84765625 C55.18271759 115.64229279 55.18184143 116.43692932 55.18093872 117.25564575 C55.13581501 129.67903049 54.35851469 141.31277392 50.80859375 153.28515625 C50.57253418 154.1246582 50.33647461 154.96416016 50.09326172 155.82910156 C39.64081947 192.42275817 15.57973941 223.74895708 -17.70605469 242.52612305 C-35.39779345 252.12191784 -55.13203094 258.2489062 -75.328125 258.55859375 C-76.45832565 258.57738586 -76.45832565 258.57738586 -77.61135864 258.59655762 C-94.08535861 258.81762545 -109.43351385 258.67987913 -125.19140625 253.28515625 C-126.24497314 252.94822754 -126.24497314 252.94822754 -127.31982422 252.60449219 C-142.43788071 247.74322151 -156.83023556 240.26578765 -169.19140625 230.28515625 C-169.73361816 229.85364258 -170.27583008 229.42212891 -170.83447266 228.97753906 C-196.92449345 208.07351905 -212.59666614 179.75856433 -220.44140625 147.47265625 C-220.60487549 146.80347168 -220.76834473 146.13428711 -220.93676758 145.44482422 C-229.52985677 108.05686603 -220.71026356 67.71287172 -201.19140625 35.28515625 C-184.94229925 9.7164494 -161.83421268 -8.05285813 -134.19140625 -19.71484375 C-133.53495117 -19.99440918 -132.87849609 -20.27397461 -132.20214844 -20.56201172 C-89.0778623 -38.35692198 -36.17189267 -28.00559552 0 0 Z " fill="#151515" transform="translate(400.19140625,378.71484375)"/>
<path d="M0 0 C1.13273849 -0.00852997 2.26547699 -0.01705994 3.43254089 -0.02584839 C4.67108322 -0.02494202 5.90962555 -0.02403564 7.18569946 -0.02310181 C8.49337784 -0.02981903 9.80105621 -0.03653625 11.14836121 -0.04345703 C14.73314235 -0.0611166 18.31782801 -0.06581239 21.90264845 -0.0670886 C24.14333684 -0.0685108 26.38400101 -0.07278168 28.62468338 -0.07808304 C36.44467967 -0.09658322 44.2646078 -0.10475367 52.08462524 -0.10317993 C59.36922254 -0.10197855 66.65352354 -0.12308005 73.93804586 -0.15466726 C80.19635674 -0.18083566 86.45457088 -0.191547 92.71293604 -0.19026911 C96.44895192 -0.18975964 100.18470445 -0.19543451 103.92066574 -0.21662521 C108.0886428 -0.23962117 112.25595771 -0.23048333 116.42398071 -0.21841431 C117.65847458 -0.22965332 118.89296844 -0.24089233 120.16487122 -0.25247192 C130.81332415 -0.17400096 130.81332415 -0.17400096 135.43423462 4.26742554 C138.78009208 8.33332233 138.86397322 12.21292613 138.82241821 17.28305054 C138.83030365 18.47178772 138.83030365 18.47178772 138.83834839 19.68453979 C138.85151727 22.29570412 138.84282152 24.90625536 138.83267212 27.51742554 C138.83469375 29.33676266 138.83760594 31.156099 138.84136963 32.97543335 C138.84578876 36.78508228 138.83937517 40.59451994 138.8253479 44.40414429 C138.80825625 49.28340472 138.81809963 54.16217007 138.83606529 59.04141235 C138.84691423 62.79724853 138.84345169 66.55296764 138.83568192 70.30880737 C138.83368298 72.10771748 138.83612841 73.90663826 138.84312057 75.70553589 C138.85075336 78.22124316 138.83910566 80.73615257 138.82241821 83.25180054 C138.82849091 83.99272949 138.8345636 84.73365845 138.84082031 85.49703979 C138.78618608 89.95077057 138.28479119 92.80341998 135.43423462 96.26742554 C129.90748715 101.57644565 123.70959763 100.84605116 116.37979126 100.81674194 C115.06367355 100.82696381 113.74755585 100.83718567 112.39155579 100.84771729 C108.79226862 100.87443032 105.19340232 100.87566247 101.59403539 100.87059069 C98.58462745 100.86844678 95.5753039 100.87822931 92.56591409 100.88780153 C85.46409502 100.90996839 78.36248754 100.91087984 71.26065063 100.89877319 C63.94404509 100.88669189 56.6282086 100.91132379 49.31173426 100.95391333 C43.0202111 100.98918439 36.72893232 101.00114211 30.43731397 100.99463785 C26.68386276 100.99101808 22.93096027 100.99622323 19.17759895 101.02406693 C14.99058489 101.05396737 10.80512904 101.03525179 6.61807251 101.01205444 C4.76241165 101.03498566 4.76241165 101.03498566 2.8692627 101.05838013 C-3.67767203 100.97818597 -7.70140254 100.51888882 -12.40035343 95.74905968 C-15.16058037 92.23987439 -14.73497592 88.69496301 -14.75863647 84.4246521 C-14.76681396 83.61469788 -14.77499146 82.80474365 -14.78341675 81.97024536 C-14.80828118 79.28285464 -14.82479037 76.59551681 -14.83920288 73.90805054 C-14.84452656 72.99063835 -14.84985023 72.07322617 -14.85533524 71.12801361 C-14.88207276 66.27117243 -14.90144478 61.41435701 -14.91586304 56.5574646 C-14.93250266 51.54244392 -14.97727282 46.52808145 -15.02823448 41.51330948 C-15.06190559 37.65623223 -15.07344037 33.79931113 -15.07909012 29.94210052 C-15.08580414 28.09372687 -15.10103016 26.24536354 -15.12498093 24.39713287 C-15.15663006 21.80680396 -15.15666994 19.21824891 -15.14926147 16.6277771 C-15.16566681 15.86702881 -15.18207214 15.10628052 -15.19897461 14.32247925 C-15.15386653 10.46076917 -14.64528107 7.87250855 -12.27929688 4.86990356 C-8.21422728 0.97120022 -5.60974041 0.01910673 0 0 Z " fill="#FDFDFD" transform="translate(252.56576538085938,477.7325744628906)"/>
<path d="M0 0 C2.12781046 2.12781046 2.58834962 3.26612927 3.52124023 6.06542969 C3.94893456 7.33325539 3.94893456 7.33325539 4.38526917 8.62669373 C4.68996628 9.54910355 4.99466339 10.47151337 5.30859375 11.421875 C5.63073349 12.38009659 5.95287323 13.33831818 6.28477478 14.32557678 C6.97813697 16.38851843 7.6690717 18.45227721 8.35784912 20.51675415 C10.17292533 25.95238869 12.0096509 31.38067689 13.84765625 36.80859375 C14.21076904 37.88143112 14.57388184 38.95426849 14.94799805 40.05961609 C18.03359613 49.15114181 21.2785689 58.17214107 24.62353516 67.17163086 C25.05843262 68.34218018 25.49333008 69.51272949 25.94140625 70.71875 C26.28032898 71.63056786 26.28032898 71.63056786 26.62609863 72.56080627 C30.5998863 83.28266608 34.44225486 94.0529683 38.3125 104.8125 C39.0857654 106.96004568 39.85903994 109.10758807 40.63232422 111.25512695 C41.37607411 113.32239329 42.11973025 115.38969337 42.86328125 117.45703125 C43.19110092 118.36767334 43.51892059 119.27831543 43.85667419 120.21655273 C46.94027639 128.79880656 49.96469436 137.39996735 53 146 C18.68 146 -15.64 146 -51 146 C-48.75031814 135.87643161 -48.75031814 135.87643161 -47.35864258 132.07080078 C-47.04624634 131.20753677 -46.7338501 130.34427277 -46.4119873 129.45484924 C-46.07622681 128.54420212 -45.74046631 127.63355499 -45.39453125 126.6953125 C-44.86079895 125.22559242 -44.86079895 125.22559242 -44.31628418 123.72618103 C-43.55142426 121.62107005 -42.78419212 119.51681972 -42.01480103 117.4133606 C-39.95563734 111.78143267 -37.91599211 106.14243961 -35.875 100.50390625 C-35.25387077 98.78961678 -35.25387077 98.78961678 -34.62019348 97.04069519 C-30.7732854 86.40810777 -27.02321723 75.74326546 -23.3125 65.0625 C-23.01427338 64.20507202 -22.71604675 63.34764404 -22.40878296 62.4642334 C-20.26872148 56.31080561 -18.13378308 50.15560722 -16 44 C-13.54910108 36.92995931 -11.09610614 29.86065721 -8.63851929 22.79293823 C-7.64248804 19.92534836 -6.64990541 17.05658033 -5.6574707 14.18774414 C-5.05567242 12.45583246 -4.45371208 10.72397708 -3.8515625 8.9921875 C-3.57629227 8.19343704 -3.30102203 7.39468658 -3.01741028 6.57173157 C-1.1138466 1.1138466 -1.1138466 1.1138466 0 0 Z " fill="#151515" transform="translate(736,393)"/>
<path d="M0 0 C9.33051959 5.85741629 16.16724146 14.238165 19 25 C20.1317501 38.19936452 18.84609079 49.43831482 10.046875 59.9296875 C1.51119995 68.56309929 -7.30565777 72.23961065 -19.3125 72.5 C-30.85310329 72.42706962 -39.47023268 68.58041022 -47.8046875 60.52734375 C-54.71357901 52.57351313 -58.56968606 43.05139451 -58.2421875 32.48046875 C-57.10314258 20.81444412 -52.71271887 12.30771157 -44.3125 4.1875 C-31.9710193 -5.7516314 -14.03254456 -7.77627666 0 0 Z " fill="#FDFDFD" transform="translate(376,399)"/>
<path d="M0 0 C8.43560126 6.1736104 14.36245413 14.94003108 16.32421875 25.3046875 C17.4347303 37.55116205 15.22895258 47.74667601 7.32421875 57.3046875 C-0.33509353 65.42557792 -8.85669495 70.24418811 -20.10693359 70.64868164 C-32.59216368 70.83579802 -41.44365144 67.45873563 -50.55078125 58.62890625 C-58.54629285 49.88381543 -61.31514182 40.57432267 -61.0234375 28.8046875 C-59.81427424 16.63153827 -53.21136624 7.75233573 -44.0625 0.0703125 C-31.5109477 -9.21496023 -12.85665703 -8.14567759 0 0 Z " fill="#FDFDFD" transform="translate(292.67578125,400.6953125)"/>
<path d="M0 0 C0.02314315 8.31001875 0.04092518 16.62002408 0.05181217 24.93006706 C0.05703667 28.7885133 0.06412649 32.64693753 0.07543945 36.50537109 C0.08628368 40.2271153 0.09228011 43.9488383 0.09487724 47.67059708 C0.09672871 49.09240172 0.10034403 50.51420517 0.10573006 51.93600082 C0.11296072 53.9233055 0.11340823 55.91063139 0.11352539 57.89794922 C0.115746 59.03046112 0.11796661 60.16297302 0.12025452 61.32980347 C0 64 0 64 -1 66 C-5.26590661 65.41333404 -8.21814973 63.91212587 -11.88671875 61.69140625 C-13.5409082 60.69463867 -13.5409082 60.69463867 -15.22851562 59.67773438 C-15.79610596 59.33057373 -16.36369629 58.98341309 -16.94848633 58.62573242 C-18.6881339 57.56211244 -20.43418417 56.50971525 -22.18164062 55.45898438 C-30.70505487 50.29494513 -30.70505487 50.29494513 -33 48 C-33.44687538 43.4771226 -33.41418856 38.93935334 -33.42553711 34.39697266 C-33.43742185 32.1398425 -33.48657484 29.88545791 -33.53710938 27.62890625 C-33.54657522 26.19272167 -33.55380949 24.7565203 -33.55859375 23.3203125 C-33.57204834 22.01336426 -33.58550293 20.70641602 -33.59936523 19.35986328 C-33 16 -33 16 -30.83081055 13.74682617 C-25.80118293 10.64316204 -20.61753123 7.91278409 -15.375 5.1875 C-14.2303125 4.57712891 -13.085625 3.96675781 -11.90625 3.33789062 C-10.81054688 2.76619141 -9.71484375 2.19449219 -8.5859375 1.60546875 C-7.5861084 1.08106201 -6.5862793 0.55665527 -5.55615234 0.01635742 C-3 -1 -3 -1 0 0 Z " fill="#FDFDFD" transform="translate(430,495)"/>
<path d="M0 0 C0.33 0 0.66 0 1 0 C1 16.83 1 33.66 1 51 C0.67 51 0.34 51 0 51 C-0.09087891 49.93458984 -0.09087891 49.93458984 -0.18359375 48.84765625 C-0.26738281 47.92855469 -0.35117188 47.00945313 -0.4375 46.0625 C-0.51871094 45.14597656 -0.59992188 44.22945312 -0.68359375 43.28515625 C-0.76044976 41.03840268 -0.76044976 41.03840268 -2 40 C-2.25815191 35.56889838 -2.18525306 31.12520177 -2.1875 26.6875 C-2.19974609 25.45708984 -2.21199219 24.22667969 -2.22460938 22.95898438 C-2.23706032 15.10243521 -1.5733164 7.6989993 0 0 Z " fill="#212121" transform="translate(108,468)"/>
<path d="M0 0 C0.80888672 -0.00080566 1.61777344 -0.00161133 2.45117188 -0.00244141 C6.40481166 0.03477905 10.07893049 0.21703483 13.9375 1.1875 C10.66692055 3.13782348 8.28208725 3.41468951 4.5 3.34765625 C3.43910156 3.33669922 2.37820313 3.32574219 1.28515625 3.31445312 C0.18042969 3.29318359 -0.92429687 3.27191406 -2.0625 3.25 C-10.46952362 3.11375172 -18.69321725 3.33454945 -27.0625 4.1875 C-19.66420995 -0.74469336 -8.67322055 0.00835892 0 0 Z " fill="#232323" transform="translate(316.0625,349.8125)"/>
<path d="M0 0 C1.89551022 -0.05441656 3.7914792 -0.09298035 5.6875 -0.125 C6.74324219 -0.14820313 7.79898437 -0.17140625 8.88671875 -0.1953125 C12.02251859 0.00141271 14.17645373 0.66942346 17 2 C17 2.33 17 2.66 17 3 C9.08 3.33 1.16 3.66 -7 4 C-4 2 -4 2 0 2 C0 1.34 0 0.68 0 0 Z " fill="#1F1F1F" transform="translate(264,392)"/>
<path d="M0 0 C1.75326456 0.06471782 3.50406454 0.20227376 5.25 0.375 C6.68085938 0.51035156 6.68085938 0.51035156 8.140625 0.6484375 C10.79961116 0.97536203 13.38213768 1.43629972 16 2 C16 2.33 16 2.66 16 3 C13.72942623 3.05398987 11.45848712 3.09278742 9.1875 3.125 C7.29064453 3.15980469 7.29064453 3.15980469 5.35546875 3.1953125 C2 3 2 3 -1 1 C-0.67 0.67 -0.34 0.34 0 0 Z " fill="#0D0D0D" transform="translate(271,705)"/>
<path d="M0 0 C0.33 0 0.66 0 1 0 C1 2.31 1 4.62 1 7 C0.34 7 -0.32 7 -1 7 C-0.67 9.31 -0.34 11.62 0 14 C-0.99 14 -1.98 14 -3 14 C-2.88512252 12.41590006 -2.75765492 10.83271037 -2.625 9.25 C-2.55539062 8.36828125 -2.48578125 7.4865625 -2.4140625 6.578125 C-2.00149945 4.00933618 -1.28839043 2.24158985 0 0 Z " fill="#1D1D1D" transform="translate(524,515)"/>
<path d="M0 0 C0.66 0.66 1.32 1.32 2 2 C1.50542305 5.83297138 -0.28579871 8.28579871 -3 11 C-2.53199289 6.94393835 -2.12046792 3.53411321 0 0 Z " fill="#0E0E0E" transform="translate(736,393)"/>
<path d="M0 0 C0.33 0.99 0.66 1.98 1 3 C-2.3125 4.125 -2.3125 4.125 -6 5 C-6.99 4.34 -7.98 3.68 -9 3 C-6.03 2.01 -3.06 1.02 0 0 Z " fill="#1C1C1D" transform="translate(287,467)"/>
<path d="M0 0 C0.99 0.33 1.98 0.66 3 1 C1.720327 3.55934601 0.75798964 3.6989233 -1.875 4.6875 C-2.57367188 4.95949219 -3.27234375 5.23148438 -3.9921875 5.51171875 C-6 6 -6 6 -9 5 C-6.03 4.01 -3.06 3.02 0 2 C0 1.34 0 0.68 0 0 Z " fill="#0D0D0D" transform="translate(371,623)"/>
</svg>
